<svg xmlns="http://www.w3.org/2000/svg" xmlns:xlink="http://www.w3.org/1999/xlink" width="965" height="1367" viewBox="0 0 965 1367">
    <defs>
        <path id="a" d="M0 .091h82.784V122H0z"/>
        <path id="c" d="M0 1367.02h964.737V.002H0z"/>
    </defs>
    <g fill="none" fill-rule="evenodd">
        <g transform="translate(0 1245.02)">
            <mask id="b" fill="#fff">
                <use xlink:href="#a"/>
            </mask>
            <path fill="#FFF" d="M68.958 41.231c0-15.344-12.305-27.652-27.48-27.652-15.512 0-27.652 12.308-27.652 27.652 0 15.178 12.14 27.656 27.653 27.656 15.174 0 27.479-12.478 27.479-27.656zM82.784 1.609v79.248c0 22.931-18.547 41.143-41.478 41.143-16.184 0-30.348-9.274-37.261-22.765l11.13-7.756c4.549 9.947 14.33 17.03 26.13 17.03 15.175 0 27.487-12.308 27.487-27.652V70.57c-6.235 7.252-15.513 11.805-27.652 11.805C18.375 82.375 0 63.996 0 41.231 0 18.3 18.375.091 41.14.091c12.139 0 21.417 4.552 27.652 11.801V1.609h13.992z" mask="url(#b)"/>
        </g>
        <mask id="d" fill="#fff">
            <use xlink:href="#c"/>
        </mask>
        <path fill="#FFF" d="M106.366 1325.877h13.826v-126.461h-13.826zM208.535 1286.251c0-15.344-12.14-27.652-27.48-27.652a27.558 27.558 0 0 0-27.652 27.652 27.56 27.56 0 0 0 27.653 27.656c15.339 0 27.479-12.309 27.479-27.656zm13.826-39.622v79.248h-13.826v-11.296c-6.74 7.922-16.861 12.814-29.34 12.814-21.243 0-39.618-18.379-39.618-41.144 0-22.762 18.375-41.14 39.619-41.14 12.478 0 22.599 4.888 29.339 12.814v-11.296h13.826zM241.732 1286.251c0-22.931 18.375-41.14 41.48-41.14 16.86 0 31.19 9.61 37.6 23.944l-12.652 5.731c-4.383-9.609-13.488-16.187-24.949-16.187-15.852 0-27.653 11.973-27.653 27.652 0 15.683 11.801 27.656 27.653 27.656 11.461 0 20.566-6.578 24.95-16.187l12.65 5.731c-6.409 14.33-20.739 23.944-37.6 23.944-23.104 0-41.479-18.209-41.479-41.144M340.341 1325.877h13.653v-79.248h-13.653v79.248zm-2.364-103.022c0-5.23 4.217-9.108 9.278-9.108 4.887 0 9.104 3.878 9.104 9.108 0 5.056-4.217 9.104-9.104 9.104-5.061 0-9.278-4.048-9.278-9.104zM444.702 1286.251c0-15.344-12.14-27.652-27.48-27.652a27.559 27.559 0 0 0-27.652 27.652 27.56 27.56 0 0 0 27.653 27.656c15.339 0 27.479-12.309 27.479-27.656zm13.826-39.622v79.248h-13.826v-11.296c-6.74 7.922-16.861 12.814-29.34 12.814-21.243 0-39.618-18.379-39.618-41.144 0-22.762 18.375-41.14 39.619-41.14 12.478 0 22.599 4.888 29.339 12.814v-11.296h13.826zM482.109 1325.877h13.826v-126.461h-13.826zM554.932 1317.108l7.757-11.296c5.226 4.722 13.487 9.105 22.758 9.105 9.277 0 15.346-4.383 15.346-11.635 0-8.092-8.26-10.117-17.199-12.644-11.635-3.204-25.288-6.578-25.288-22.257 0-15.009 12.982-23.27 28.495-23.27 9.271 0 18.548 3.035 25.29 7.757l-7.924 10.621c-6.574-4.72-12.982-6.237-18.548-6.237-8.772 0-14.33 3.708-14.33 9.778 0 7.756 9.61 9.611 19.723 12.308 11.296 3.035 23.104 7.42 23.104 22.935 0 15.848-11.635 25.122-29.34 25.122-13.488 0-22.93-5.226-29.844-10.287M628.938 1286.251c0-22.931 18.375-41.14 41.48-41.14 16.86 0 31.19 9.61 37.598 23.944l-12.65 5.731c-4.383-9.609-13.488-16.187-24.949-16.187-15.852 0-27.653 11.973-27.653 27.652 0 15.683 11.801 27.656 27.653 27.656 11.461 0 20.566-6.578 24.95-16.187l12.65 5.731c-6.409 14.33-20.74 23.944-37.6 23.944-23.104 0-41.479-18.209-41.479-41.144M770.885 1248.147l-4.722 11.803c-2.019-.843-4.382-1.351-6.408-1.351-11.8 0-20.739 10.79-20.739 25.292v41.986H725.19v-79.248h13.826v12.309c4.217-8.432 10.964-13.827 20.407-13.827 4.721 0 8.766 1.348 11.462 3.035M783.682 1325.877h13.653v-79.248h-13.653v79.248zm-2.364-103.022c0-5.23 4.217-9.108 9.277-9.108 4.888 0 9.105 3.878 9.105 9.108 0 5.056-4.217 9.104-9.105 9.104-5.06 0-9.277-4.048-9.277-9.104zM892.26 1286.251a27.559 27.559 0 0 0-27.653-27.652c-15.34 0-27.486 12.308-27.486 27.652 0 15.347 12.145 27.656 27.486 27.656a27.56 27.56 0 0 0 27.653-27.656m13.826 0c0 22.765-18.375 41.144-39.626 41.144-12.479 0-22.593-4.892-29.34-12.814v51.765h-13.826v-119.717h13.827v11.296c6.746-7.926 16.86-12.814 29.339-12.814 21.25 0 39.625 18.378 39.625 41.14M964.737 1259.273h-16.522v66.604h-13.993v-66.604h-16.695v-12.644h16.695v-28.496h13.993v28.495h16.522zM847.387 32c-30.903 0-56.042 25.142-56.042 56.045 0 30.904 25.14 56.042 56.042 56.042 30.903 0 56.042-25.138 56.042-56.042C903.43 57.142 878.29 32 847.387 32m0 144.084c-48.542 0-88.039-39.492-88.039-88.04 0-48.545 39.497-88.041 88.04-88.041 48.541 0 88.038 39.496 88.038 88.042 0 48.547-39.497 88.039-88.039 88.039M737.7 481.928V428.7c0-142.196-115.69-257.886-257.89-257.886-142.198 0-257.885 115.69-257.885 257.886v53.229h116.979l282.344 265.067c-6.785 72.096-67.6 144.707-141.438 144.707-78.361 0-142.114-63.753-142.114-142.12l.215-49.438H221.925v49.437c0 142.202 115.687 257.892 257.885 257.892 142.2 0 257.89-131.688 257.89-273.89v-96.925H543.509L339.258 444.695l.207-38.32c10.744-67.793 69.579-119.79 140.345-119.79 78.366 0 142.118 63.752 142.118 142.114v53.23H737.7z" mask="url(#d)"/>
    </g>
</svg>
